<?xml version="1.0" encoding="UTF-8"?>
<svg width="100px" height="25px" viewBox="0 0 100 25" version="1.1" xmlns="http://www.w3.org/2000/svg" xmlns:xlink="http://www.w3.org/1999/xlink">
    <!-- Generator: Sketch 48.2 (47327) - http://www.bohemiancoding.com/sketch -->
    <title>Page 1</title>
    <desc>Created with Sketch.</desc>
    <defs>
        <polygon id="path-1" points="0.209003215 0.0641346154 11.1250804 0.0641346154 11.1250804 14.4230769 0.209003215 14.4230769"></polygon>
    </defs>
    <g id="导航-已登录" stroke="none" stroke-width="1" fill="none" fill-rule="evenodd" transform="translate(-30.000000, -13.000000)">
        <g id="Page-1">
            <g transform="translate(30.000000, 13.000000)">
                <path d="M11.5846302,8.11820513 C11.5814148,8.07653846 11.5785209,8.03455128 11.5753055,7.99288462 C11.5688746,7.91339744 11.5621222,7.83423077 11.5540836,7.75538462 L11.5505466,7.72044872 C11.2878457,5.18455128 10.2296463,2.88423077 8.62900322,1.07108974 L8.47659164,0.901217949 C8.26726688,0.672692308 8.04861736,0.452820513 7.8222508,0.241282051 C7.76983923,0.195448718 7.60874598,0.0547435897 7.60874598,0.0547435897 L7.60424437,0.0512179487 C7.5711254,0.0194871795 7.52643087,-6.41025641e-05 7.47723473,-6.41025641e-05 C7.40038585,-6.41025641e-05 7.334791,0.0460897436 7.30649518,0.112115385 L7.30553055,0.115 C7.29684887,0.136474359 7.29170418,0.159871795 7.29170418,0.184871795 C7.29170418,0.184871795 7.51292605,2.54192308 6.76855305,4.88647436 C6.64250804,5.28391026 6.49202572,5.69224359 6.30778135,6.10153846 C5.78398714,7.05891026 5.17209003,7.96115385 4.47980707,8.79544872 C4.11453376,9.24224359 3.72546624,9.67237179 3.31228296,10.0839103 C3.20199357,10.1944872 3.08913183,10.3021795 2.97594855,10.4089103 C2.77016077,10.5778205 2.57144695,10.7573077 2.38045016,10.9476923 C0.845401929,12.4778205 6.43086817e-05,14.5121154 6.43086817e-05,16.6762179 C6.43086817e-05,18.1566667 0.396205788,19.5765385 1.13800643,20.8159615 C1.13832797,20.8166026 1.13864952,20.8169231 1.1392926,20.8175641 C1.48109325,21.3887179 1.89620579,21.9217308 2.38045016,22.4044231 C2.43028939,22.4544231 2.48109325,22.5034615 2.53221865,22.551859 C2.53832797,22.5576282 2.54475884,22.5630769 2.55054662,22.5688462 C2.59684887,22.6124359 2.64282958,22.6550641 2.68977492,22.6973718 L2.69620579,22.7028205 C2.71903537,22.7230128 2.74250804,22.7416026 2.76533762,22.7617949 C2.77916399,22.7739744 2.79363344,22.7858333 2.80778135,22.7976923 C2.84411576,22.8217308 2.8881672,22.8358333 2.93543408,22.8358333 C3.01710611,22.8358333 3.08881029,22.7938462 3.13028939,22.7297436 C3.33736334,21.840641 3.60971061,20.9669231 3.94604502,20.1117949 C3.94700965,20.1098718 3.94765273,20.1076282 3.94861736,20.1053846 C4.00874598,19.9521795 4.07080386,19.7992949 4.13511254,19.6470513 C5.09395498,17.3871154 6.46694534,15.3576282 8.21517685,13.6146795 C8.48205788,13.3489744 8.75569132,13.0932051 9.03511254,12.8454487 C9.40971061,12.4791026 9.77948553,12.1012179 10.1238585,11.6771795 C10.8801286,10.7794231 11.279164,10.003141 11.4624437,9.28423077 C11.5537621,8.92621795 11.5907395,8.58262821 11.5923473,8.24512821 C11.5900965,8.20282051 11.5875241,8.16051282 11.5846302,8.11820513" id="Fill-1" fill="#C7CCE6"></path>
                <g id="Group-5" transform="translate(5.144695, 10.354103)">
                    <mask id="mask-2" fill="white">
                        <use xlink:href="#path-1"></use>
                    </mask>
                    <g id="Clip-4"></g>
                    <path d="M9.68553055,0.312852564 C9.66623794,0.278557692 9.64726688,0.244583333 9.62765273,0.210608974 C9.62122186,0.199070513 9.59710611,0.159326923 9.59710611,0.159326923 C9.56559486,0.102916667 9.50546624,0.0641346154 9.43601286,0.0641346154 C9.35916399,0.0641346154 9.29389068,0.110288462 9.26527331,0.176314103 L9.26430868,0.179198718 C9.19389068,0.373108974 9.10289389,0.646826923 9.00610932,0.883044872 C8.67459807,1.71637821 8.27073955,2.51317308 7.80289389,3.26605769 C6.94919614,4.56317308 5.90932476,5.68849359 4.7778135,6.82887821 C4.67813505,6.92342949 4.57909968,7.01894231 4.48135048,7.11637821 C4.0392283,7.55708333 3.62475884,8.01862179 3.23729904,8.49907051 C3.114791,8.64586538 2.99807074,8.7961859 2.88713826,8.94971154 C2.19967846,9.90259615 1.73440514,10.986891 1.51768489,12.1381731 L1.52090032,12.1003526 C1.39067524,12.785609 0.918649518,13.3516346 0.289067524,13.6154167 C0.240514469,13.6577244 0.209003215,13.7199038 0.209003215,13.7891346 C0.209003215,13.8615705 0.243086817,13.9253526 0.294855305,13.9679808 C0.296141479,13.9692628 0.297106109,13.9708654 0.298392283,13.9724679 L0.30192926,13.97375 C0.341157556,14.0032372 0.389389068,14.0215064 0.442122186,14.0215064 C0.444051447,14.0215064 0.445659164,14.0208654 0.447588424,14.0208654 C0.758842444,14.1221474 1.07717042,14.2048397 1.40032154,14.2686218 C1.91607717,14.3702244 2.44501608,14.423109 2.98231511,14.423109 C5.15337621,14.423109 7.19421222,13.5804808 8.72926045,12.0503526 C10.2411576,10.5433013 11.0819936,8.54714744 11.1073955,6.41990385 C11.1073955,6.41990385 11.1138264,6.37599359 11.1212219,6.31605769 C11.1234727,6.22150641 11.1250804,6.12663462 11.1250804,6.03144231 C11.1250804,5.65964744 11.107074,5.29233974 11.0742765,4.92919872 C11.0636656,4.82759615 11.0527331,4.7263141 11.0398714,4.62503205 C11.026045,4.51509615 11.0109325,4.40580128 10.9942122,4.29650641 C10.978135,4.19009615 10.9607717,4.08400641 10.9418006,3.97791667 C10.9241158,3.87503205 10.9045016,3.77246795 10.8839228,3.67022436 C10.8636656,3.57086538 10.8427653,3.47150641 10.8202572,3.37278846 C10.7987138,3.27727564 10.7762058,3.18144231 10.75209,3.08625 C10.7292605,2.99426282 10.7054662,2.90259615 10.6803859,2.81060897 C10.6562701,2.72246795 10.6308682,2.63432692 10.6048232,2.54650641 C10.5797428,2.46189103 10.5536977,2.37759615 10.5270096,2.29362179 C10.5009646,2.21285256 10.4745981,2.13240385 10.4469453,2.05227564 C10.4205788,1.97535256 10.3935691,1.89875 10.3655949,1.82246795 C10.3392283,1.74939103 10.3118971,1.67695513 10.2839228,1.60451923 C10.2572347,1.53592949 10.2299035,1.46733974 10.2019293,1.39907051 C10.1755627,1.33432692 10.1485531,1.26958333 10.1209003,1.20548077 C10.0948553,1.14522436 10.0684887,1.08528846 10.0414791,1.02567308 C10.0045016,0.944262821 9.96688103,0.86349359 9.92829582,0.783365385 C9.92733119,0.781442308 9.92636656,0.779519231 9.92540193,0.777596154 C9.88681672,0.698108974 9.84758842,0.619583333 9.8073955,0.541057692 C9.78810289,0.503557692 9.76848875,0.466057692 9.74855305,0.428878205 C9.72797428,0.390096154 9.70675241,0.351314103 9.68553055,0.312852564" id="Fill-3" fill="#C7CCE6" mask="url(#mask-2)"></path>
                </g>
                <path d="M47.5265273,17.4426282 L44.0416399,17.4426282 L45.7840836,12.7490385 L47.5265273,17.4426282 Z M47.0744373,8.86121795 C47.0014469,8.68814103 46.8329582,8.57628205 46.6445338,8.57628205 L44.9458199,8.57628205 C44.7567524,8.57628205 44.5876206,8.68846154 44.5155949,8.86217949 L38.3471061,23.6352564 C38.287299,23.7788462 38.3027331,23.9419872 38.3895498,24.0714744 C38.4763666,24.2009615 38.6213826,24.2782051 38.7773312,24.2782051 L41.0519293,24.2782051 C41.2413183,24.2782051 41.4104502,24.1657051 41.4824759,23.9913462 L43.0368167,20.2461538 L48.5950161,20.2461538 L50.1490354,23.9913462 C50.2213826,24.1657051 50.3905145,24.2782051 50.579582,24.2782051 L52.8528939,24.2782051 C53.0094855,24.2782051 53.1545016,24.200641 53.2409968,24.0711538 C53.327492,23.9413462 53.3432476,23.7782051 53.2827974,23.6342949 L47.0744373,8.86121795 Z" id="Fill-6" fill="#C7CCE6"></path>
                <path d="M36.1186495,8.59333333 L33.8691318,8.59333333 C33.6446945,8.59333333 33.4620579,8.77474359 33.4620579,8.99814103 L33.4562701,15.0208974 C33.4562701,15.0939744 33.3942122,15.1555128 33.3212219,15.1555128 L26.9958199,15.1555128 C26.9639871,15.1555128 26.9347267,15.1436538 26.9131833,15.1225 C26.8913183,15.1007051 26.8794212,15.0708974 26.8797428,15.0388462 L26.885209,9.01608974 C26.8855305,8.90423077 26.8411576,8.79814103 26.7601286,8.71737179 C26.6797428,8.6375641 26.5733119,8.59333333 26.4610932,8.59333333 L24.1842444,8.59333333 C23.9601286,8.59333333 23.7778135,8.77474359 23.777492,8.99814103 L23.7620579,23.9439744 C23.7620579,24.0564744 23.8067524,24.1625641 23.8874598,24.2426923 C23.9678457,24.3228205 24.0742765,24.3667308 24.1864952,24.3667308 L26.4633441,24.3667308 C26.6868167,24.3667308 26.8694534,24.1853205 26.8700965,23.9622436 L26.8768489,17.7875641 C26.8768489,17.7144872 26.9382637,17.6526282 27.0115756,17.6526282 L33.337299,17.6526282 C33.3684887,17.6526282 33.3980707,17.6644872 33.4192926,17.685641 C33.4414791,17.7074359 33.4533762,17.7372436 33.4533762,17.7689744 L33.4466238,23.9439744 C33.4466238,24.0564744 33.4913183,24.1625641 33.5720257,24.2426923 C33.6524116,24.3228205 33.7588424,24.3667308 33.8710611,24.3667308 L36.1209003,24.3667308 C36.3450161,24.3667308 36.5273312,24.1853205 36.5273312,23.9622436 L36.5427653,9.01608974 C36.5427653,8.90358974 36.4983923,8.79782051 36.4176849,8.71737179 C36.337299,8.6375641 36.2311897,8.59333333 36.1186495,8.59333333" id="Fill-8" fill="#C7CCE6"></path>
                <path d="M78.7313183,17.4426282 L75.2467524,17.4426282 L76.9891961,12.7490385 L78.7313183,17.4426282 Z M78.2792283,8.86121795 C78.2062379,8.68814103 78.0377492,8.57628205 77.8496463,8.57628205 L76.1506109,8.57628205 C75.961865,8.57628205 75.7930547,8.68846154 75.7203859,8.86217949 L69.5518971,23.6352564 C69.49209,23.7788462 69.5075241,23.9419872 69.5943408,24.0714744 C69.6811576,24.2009615 69.8261736,24.2782051 69.9821222,24.2782051 L72.2570418,24.2782051 C72.4461093,24.2782051 72.6152412,24.1657051 72.6875884,23.9913462 L74.2416077,20.2461538 L79.7998071,20.2461538 L81.3541479,23.9913462 C81.4261736,24.1657051 81.5953055,24.2782051 81.7846945,24.2782051 L84.0576849,24.2782051 C84.2142765,24.2782051 84.3596141,24.200641 84.4461093,24.0708333 C84.5326045,23.9410256 84.5483601,23.7778846 84.4875884,23.6342949 L78.2792283,8.86121795 Z" id="Fill-10" fill="#C7CCE6"></path>
                <path d="M58.0693248,11.7428846 C58.0693248,11.5307051 58.2423151,11.3582692 58.4548553,11.3582692 L58.5796141,11.3582692 C59.4879743,11.3582692 60.3294534,11.4396795 61.0809003,11.6002564 C61.8262379,11.7601923 62.5072669,12.115641 63.1059807,12.6573077 C63.6075884,13.1015385 64.0140193,13.6653205 64.3140193,14.3326282 C64.6140193,14.9992949 64.7657878,15.7182051 64.7657878,16.4694872 C64.7657878,16.8855128 64.7162701,17.3089103 64.6185209,17.7271795 C64.5207717,18.1448077 64.3725402,18.5464103 64.1770418,18.9207692 C63.982508,19.2957692 63.7352412,19.6444872 63.4423151,19.9566667 C63.1493891,20.2698077 62.8104823,20.5335897 62.4358842,20.7409615 C62.1275241,20.9082692 61.826881,21.0422436 61.5423151,21.1390385 C61.2561415,21.2364744 60.9625723,21.3108333 60.6696463,21.3592308 C60.3789711,21.4079487 60.0632154,21.4432051 59.7313826,21.4646795 C59.4024437,21.4851923 59.0365273,21.4960897 58.6429582,21.4960897 L58.4548553,21.4960897 C58.2423151,21.4960897 58.0693248,21.3236538 58.0693248,21.1114744 L58.0693248,11.7428846 Z M67.0136977,12.9912821 C66.7805788,12.4701282 66.5011576,11.9845513 66.1834727,11.5483333 C65.8651447,11.1114744 65.5175563,10.7255769 65.1500322,10.4015385 C64.922701,10.2034615 64.6362058,9.99608974 64.2979421,9.78583333 C63.9583923,9.57397436 63.5284887,9.37397436 63.0198071,9.19096154 C62.5111254,9.00826923 61.8956913,8.85826923 61.1905466,8.74544872 C60.4847588,8.63326923 59.6419936,8.57621795 58.6854019,8.57621795 L55.5535691,8.57621795 C55.2966559,8.57621795 55.0876527,8.78455128 55.0876527,9.04064103 L55.0876527,23.8137179 C55.0876527,24.0698077 55.2966559,24.278141 55.5535691,24.278141 L58.7490675,24.278141 C59.1905466,24.278141 59.6471383,24.2640385 60.1069453,24.2361538 C60.5738264,24.2076282 61.0384566,24.1544231 61.4879743,24.076859 C61.938135,23.9999359 62.378328,23.8932051 62.7956913,23.7592308 C63.2133762,23.6252564 63.6108039,23.4573077 63.9786495,23.2598718 C64.5442444,22.9499359 65.0673955,22.5496154 65.533955,22.0704487 C65.9985852,21.5935256 66.3995498,21.0508974 66.7262379,20.4573077 C67.0516399,19.865 67.3056592,19.2223718 67.4815434,18.5483333 C67.6580707,17.8726923 67.7477814,17.1733333 67.7477814,16.4694872 C67.7477814,15.8637179 67.6831511,15.2569872 67.5561415,14.6666026 C67.4288103,14.0758974 67.2464952,13.5121154 67.0136977,12.9912821 Z" id="Fill-12" fill="#C7CCE6"></path>
                <path d="M94.8087781,16.4483974 L99.7537942,9.30448718 C99.8537942,9.1599359 99.8650482,8.98044872 99.7830547,8.825 C99.7010611,8.66923077 99.5467203,8.57628205 99.3705145,8.57628205 L97.0589389,8.57628205 C96.9055627,8.57628205 96.7621543,8.65128205 96.6756592,8.77692308 L93.0663344,13.9913462 L89.5615113,8.78205128 C89.4746945,8.65320513 89.33,8.57628205 89.1746945,8.57628205 L86.7592605,8.57628205 C86.5830547,8.57628205 86.4287138,8.66923077 86.3467203,8.82435897 C86.2647267,8.97980769 86.2753376,9.15897436 86.3750161,9.30384615 L91.3013826,16.4483974 L86.3782315,23.5496795 C86.27791,23.6942308 86.2669775,23.8737179 86.3486495,24.0294872 C86.4306431,24.1852564 86.5853055,24.2782051 86.7618328,24.2782051 L89.1753376,24.2782051 C89.3303215,24.2782051 89.4746945,24.2019231 89.5618328,24.0737179 L93.0663344,18.9048077 L96.6756592,24.0788462 C96.7624759,24.2038462 96.9055627,24.2782051 97.0579743,24.2782051 L99.3679421,24.2782051 C99.5444695,24.2782051 99.6988103,24.1852564 99.7808039,24.0291667 C99.8627974,23.8730769 99.8515434,23.6935897 99.7505788,23.5487179 L94.8087781,16.4483974 Z" id="Fill-14" fill="#C7CCE6"></path>
            </g>
        </g>
    </g>
</svg>